<?xml version="1.0" encoding="UTF-8" standalone="no"?>
<!DOCTYPE svg PUBLIC "-//W3C//DTD SVG 1.1//EN"
 "http://www.w3.org/Graphics/SVG/1.1/DTD/svg11.dtd">
<!-- Generated by graphviz version 2.50.0 (20211204.2007)
 -->
<!-- Title: DFA Pages: 1 -->
<svg width="721pt" height="2005pt"
 viewBox="0.00 0.00 720.81 2004.80" xmlns="http://www.w3.org/2000/svg" xmlns:xlink="http://www.w3.org/1999/xlink">
<g id="graph0" class="graph" transform="scale(1 1) rotate(0) translate(4 2000.8)">
<title>DFA</title>
<polygon fill="white" stroke="transparent" points="-4,4 -4,-2000.8 716.81,-2000.8 716.81,4 -4,4"/>
<!-- 0 -->
<g id="node1" class="node">
<title>0</title>
<polygon fill="#ff3030" stroke="black" stroke-width="2.48" points="300.81,-1923.8 210.81,-1923.8 210.81,-1833.8 300.81,-1833.8 300.81,-1923.8"/>
<text text-anchor="middle" x="255.81" y="-1905.1" font-family="Times,serif" font-size="14.00">0 #11</text>
<text text-anchor="middle" x="255.81" y="-1890.1" font-family="Times,serif" font-size="14.00">fin: </text>
<text text-anchor="middle" x="255.81" y="-1875.1" font-family="Times,serif" font-size="14.00"> path: 0:11 , </text>
<text text-anchor="middle" x="255.81" y="-1860.1" font-family="Times,serif" font-size="14.00">11 0</text>
<text text-anchor="middle" x="255.81" y="-1845.1" font-family="Times,serif" font-size="14.00">[10,1,]</text>
</g>
<!-- 1 -->
<g id="node3" class="node">
<title>1</title>
<ellipse fill="#ff3030" stroke="black" stroke-width="2.4" cx="69.81" cy="-1709.11" rx="56.64" ry="58.88"/>
<text text-anchor="middle" x="69.81" y="-1735.41" font-family="Times,serif" font-size="14.00">1 #10</text>
<text text-anchor="middle" x="69.81" y="-1720.41" font-family="Times,serif" font-size="14.00">fin: 0:1 , </text>
<text text-anchor="middle" x="69.81" y="-1705.41" font-family="Times,serif" font-size="14.00"> path: 0:9 , </text>
<text text-anchor="middle" x="69.81" y="-1690.41" font-family="Times,serif" font-size="14.00">9 1</text>
<text text-anchor="middle" x="69.81" y="-1675.41" font-family="Times,serif" font-size="14.00">[9,]</text>
</g>
<!-- 0&#45;&gt;1 -->
<g id="edge2" class="edge">
<title>0&#45;&gt;1</title>
<path fill="none" stroke="black" stroke-width="2.48" d="M210.66,-1875.61C168.74,-1870.96 108.23,-1856.98 76.81,-1815.8 68.42,-1804.8 64.35,-1791.13 62.8,-1777.32"/>
<polygon fill="black" stroke="black" stroke-width="2.48" points="66.29,-1777 62.09,-1767.28 59.3,-1777.5 66.29,-1777"/>
<text text-anchor="middle" x="241.81" y="-1804.6" font-family="Times,serif" font-size="14.00">8761.0__&gt;eureka&gt;css&gt;wro.css__200.0__get__user__eureka</text>
<text text-anchor="middle" x="241.81" y="-1789.6" font-family="Times,serif" font-size="14.00">10 </text>
</g>
<!-- 2 -->
<g id="node4" class="node">
<title>2</title>
<ellipse fill="#ff3030" stroke="black" stroke-width="0.69" cx="432.81" cy="-1709.11" rx="56.64" ry="58.88"/>
<text text-anchor="middle" x="432.81" y="-1735.41" font-family="Times,serif" font-size="14.00">2 #1</text>
<text text-anchor="middle" x="432.81" y="-1720.41" font-family="Times,serif" font-size="14.00">fin: </text>
<text text-anchor="middle" x="432.81" y="-1705.41" font-family="Times,serif" font-size="14.00"> path: 0:1 , </text>
<text text-anchor="middle" x="432.81" y="-1690.41" font-family="Times,serif" font-size="14.00">1 0</text>
<text text-anchor="middle" x="432.81" y="-1675.41" font-family="Times,serif" font-size="14.00">[0,1,]</text>
</g>
<!-- 0&#45;&gt;2 -->
<g id="edge3" class="edge">
<title>0&#45;&gt;2</title>
<path fill="none" stroke="black" stroke-width="2.48" d="M300.94,-1871.48C336.07,-1864.15 383.34,-1848.56 410.81,-1815.8 419.82,-1805.05 425.45,-1791.55 428.89,-1777.83"/>
<polygon fill="black" stroke="black" stroke-width="2.48" points="432.36,-1778.35 431.03,-1767.84 425.51,-1776.89 432.36,-1778.35"/>
<text text-anchor="middle" x="536.81" y="-1804.6" font-family="Times,serif" font-size="14.00">8761.0__&gt;__200.0__get__user__eureka</text>
<text text-anchor="middle" x="536.81" y="-1789.6" font-family="Times,serif" font-size="14.00">1 </text>
</g>
<!-- I -->
<g id="node2" class="node">
<title>I</title>
<ellipse fill="none" stroke="black" cx="255.81" cy="-1978.8" rx="27" ry="18"/>
<text text-anchor="middle" x="255.81" y="-1975.1" font-family="Times,serif" font-size="14.00">I</text>
</g>
<!-- I&#45;&gt;0 -->
<g id="edge1" class="edge">
<title>I&#45;&gt;0</title>
<path fill="none" stroke="black" d="M255.81,-1960.73C255.81,-1953.16 255.81,-1943.79 255.81,-1934.13"/>
<polygon fill="black" stroke="black" points="259.31,-1934.04 255.81,-1924.04 252.31,-1934.04 259.31,-1934.04"/>
</g>
<!-- 3 -->
<g id="node5" class="node">
<title>3</title>
<ellipse fill="#ff3030" stroke="black" stroke-width="2.3" cx="62.81" cy="-1525.73" rx="56.64" ry="58.88"/>
<text text-anchor="middle" x="62.81" y="-1552.03" font-family="Times,serif" font-size="14.00">3 #9</text>
<text text-anchor="middle" x="62.81" y="-1537.03" font-family="Times,serif" font-size="14.00">fin: 0:1 , </text>
<text text-anchor="middle" x="62.81" y="-1522.03" font-family="Times,serif" font-size="14.00"> path: 0:8 , </text>
<text text-anchor="middle" x="62.81" y="-1507.03" font-family="Times,serif" font-size="14.00">8 1</text>
<text text-anchor="middle" x="62.81" y="-1492.03" font-family="Times,serif" font-size="14.00">[0,8,]</text>
</g>
<!-- 1&#45;&gt;3 -->
<g id="edge4" class="edge">
<title>1&#45;&gt;3</title>
<path fill="none" stroke="black" stroke-width="2.4" d="M67.58,-1650.22C66.89,-1632.46 66.13,-1612.76 65.42,-1594.41"/>
<polygon fill="black" stroke="black" stroke-width="2.4" points="68.92,-1594.23 65.04,-1584.38 61.92,-1594.5 68.92,-1594.23"/>
<text text-anchor="middle" x="176.81" y="-1621.22" font-family="Times,serif" font-size="14.00">8761.0__&gt;__200.0__get__user__eureka</text>
<text text-anchor="middle" x="176.81" y="-1606.22" font-family="Times,serif" font-size="14.00">9 </text>
</g>
<!-- 4 -->
<g id="node6" class="node">
<title>4</title>
<ellipse fill="#ff3030" stroke="black" stroke-width="0.69" cx="432.81" cy="-1525.73" rx="56.64" ry="58.88"/>
<text text-anchor="middle" x="432.81" y="-1552.03" font-family="Times,serif" font-size="14.00">4 #1</text>
<text text-anchor="middle" x="432.81" y="-1537.03" font-family="Times,serif" font-size="14.00">fin: </text>
<text text-anchor="middle" x="432.81" y="-1522.03" font-family="Times,serif" font-size="14.00"> path: 0:1 , </text>
<text text-anchor="middle" x="432.81" y="-1507.03" font-family="Times,serif" font-size="14.00">1 0</text>
<text text-anchor="middle" x="432.81" y="-1492.03" font-family="Times,serif" font-size="14.00">[1,]</text>
</g>
<!-- 2&#45;&gt;4 -->
<g id="edge5" class="edge">
<title>2&#45;&gt;4</title>
<path fill="none" stroke="black" stroke-width="0.69" d="M432.81,-1650.22C432.81,-1632.63 432.81,-1613.14 432.81,-1594.94"/>
<polygon fill="black" stroke="black" stroke-width="0.69" points="436.31,-1594.69 432.81,-1584.69 429.31,-1594.69 436.31,-1594.69"/>
<text text-anchor="middle" x="572.81" y="-1621.22" font-family="Times,serif" font-size="14.00">8761.0__&gt;favicon.ico__404.0__get__user__eureka</text>
<text text-anchor="middle" x="572.81" y="-1606.22" font-family="Times,serif" font-size="14.00">1 </text>
</g>
<!-- 5 -->
<g id="node7" class="node">
<title>5</title>
<ellipse fill="#ff3030" stroke="black" stroke-width="2.2" cx="60.81" cy="-1342.35" rx="56.64" ry="58.88"/>
<text text-anchor="middle" x="60.81" y="-1368.65" font-family="Times,serif" font-size="14.00">5 #8</text>
<text text-anchor="middle" x="60.81" y="-1353.65" font-family="Times,serif" font-size="14.00">fin: 0:1 , </text>
<text text-anchor="middle" x="60.81" y="-1338.65" font-family="Times,serif" font-size="14.00"> path: 0:7 , </text>
<text text-anchor="middle" x="60.81" y="-1323.65" font-family="Times,serif" font-size="14.00">7 1</text>
<text text-anchor="middle" x="60.81" y="-1308.65" font-family="Times,serif" font-size="14.00">[7,]</text>
</g>
<!-- 3&#45;&gt;5 -->
<g id="edge6" class="edge">
<title>3&#45;&gt;5</title>
<path fill="none" stroke="black" stroke-width="2.3" d="M62.17,-1466.84C61.98,-1449.25 61.76,-1429.76 61.56,-1411.56"/>
<polygon fill="black" stroke="black" stroke-width="2.3" points="65.06,-1411.27 61.45,-1401.31 58.06,-1411.35 65.06,-1411.27"/>
<text text-anchor="middle" x="202.81" y="-1437.84" font-family="Times,serif" font-size="14.00">8761.0__&gt;favicon.ico__404.0__get__user__eureka</text>
<text text-anchor="middle" x="202.81" y="-1422.84" font-family="Times,serif" font-size="14.00">8 </text>
</g>
<!-- 6 -->
<g id="node8" class="node">
<title>6</title>
<ellipse fill="#ff3030" stroke="black" stroke-width="0.69" cx="432.81" cy="-1342.35" rx="56.64" ry="58.88"/>
<text text-anchor="middle" x="432.81" y="-1368.65" font-family="Times,serif" font-size="14.00">6 #1</text>
<text text-anchor="middle" x="432.81" y="-1353.65" font-family="Times,serif" font-size="14.00">fin: </text>
<text text-anchor="middle" x="432.81" y="-1338.65" font-family="Times,serif" font-size="14.00"> path: 0:1 , </text>
<text text-anchor="middle" x="432.81" y="-1323.65" font-family="Times,serif" font-size="14.00">1 0</text>
<text text-anchor="middle" x="432.81" y="-1308.65" font-family="Times,serif" font-size="14.00">[1,]</text>
</g>
<!-- 4&#45;&gt;6 -->
<g id="edge7" class="edge">
<title>4&#45;&gt;6</title>
<path fill="none" stroke="black" stroke-width="0.69" d="M432.81,-1466.84C432.81,-1449.25 432.81,-1429.76 432.81,-1411.56"/>
<polygon fill="black" stroke="black" stroke-width="0.69" points="436.31,-1411.31 432.81,-1401.31 429.31,-1411.31 436.31,-1411.31"/>
<text text-anchor="middle" x="555.31" y="-1437.84" font-family="Times,serif" font-size="14.00">8761.0__&gt;lastn__200.0__get__user__eureka</text>
<text text-anchor="middle" x="555.31" y="-1422.84" font-family="Times,serif" font-size="14.00">1 </text>
</g>
<!-- 7 -->
<g id="node9" class="node">
<title>7</title>
<ellipse fill="#ff3030" stroke="black" stroke-width="2.08" cx="60.81" cy="-1158.97" rx="56.64" ry="58.88"/>
<text text-anchor="middle" x="60.81" y="-1185.27" font-family="Times,serif" font-size="14.00">7 #7</text>
<text text-anchor="middle" x="60.81" y="-1170.27" font-family="Times,serif" font-size="14.00">fin: 0:1 , </text>
<text text-anchor="middle" x="60.81" y="-1155.27" font-family="Times,serif" font-size="14.00"> path: 0:6 , </text>
<text text-anchor="middle" x="60.81" y="-1140.27" font-family="Times,serif" font-size="14.00">6 1</text>
<text text-anchor="middle" x="60.81" y="-1125.27" font-family="Times,serif" font-size="14.00">[6,]</text>
</g>
<!-- 5&#45;&gt;7 -->
<g id="edge8" class="edge">
<title>5&#45;&gt;7</title>
<path fill="none" stroke="black" stroke-width="2.2" d="M60.81,-1283.46C60.81,-1265.87 60.81,-1246.38 60.81,-1228.18"/>
<polygon fill="black" stroke="black" stroke-width="2.2" points="64.31,-1227.93 60.81,-1217.93 57.31,-1227.93 64.31,-1227.93"/>
<text text-anchor="middle" x="183.31" y="-1254.46" font-family="Times,serif" font-size="14.00">8761.0__&gt;lastn__200.0__get__user__eureka</text>
<text text-anchor="middle" x="183.31" y="-1239.46" font-family="Times,serif" font-size="14.00">7 </text>
</g>
<!-- 8 -->
<g id="node10" class="node">
<title>8</title>
<ellipse fill="#ff3030" stroke="black" stroke-width="0.69" cx="432.81" cy="-1158.97" rx="56.64" ry="58.88"/>
<text text-anchor="middle" x="432.81" y="-1185.27" font-family="Times,serif" font-size="14.00">8 #1</text>
<text text-anchor="middle" x="432.81" y="-1170.27" font-family="Times,serif" font-size="14.00">fin: </text>
<text text-anchor="middle" x="432.81" y="-1155.27" font-family="Times,serif" font-size="14.00"> path: 0:1 , </text>
<text text-anchor="middle" x="432.81" y="-1140.27" font-family="Times,serif" font-size="14.00">1 0</text>
<text text-anchor="middle" x="432.81" y="-1125.27" font-family="Times,serif" font-size="14.00">[1,]</text>
</g>
<!-- 6&#45;&gt;8 -->
<g id="edge9" class="edge">
<title>6&#45;&gt;8</title>
<path fill="none" stroke="black" stroke-width="0.69" d="M432.81,-1283.46C432.81,-1265.87 432.81,-1246.38 432.81,-1228.18"/>
<polygon fill="black" stroke="black" stroke-width="0.69" points="436.31,-1227.93 432.81,-1217.93 429.31,-1227.93 436.31,-1227.93"/>
<text text-anchor="middle" x="542.81" y="-1254.46" font-family="Times,serif" font-size="14.00">8761.0__&gt;__200.0__get__user__eureka</text>
<text text-anchor="middle" x="542.81" y="-1239.46" font-family="Times,serif" font-size="14.00">1 </text>
</g>
<!-- 9 -->
<g id="node11" class="node">
<title>9</title>
<ellipse fill="#ff3030" stroke="black" stroke-width="3.09" cx="60.81" cy="-975.59" rx="60.62" ry="58.88"/>
<text text-anchor="middle" x="60.81" y="-1001.89" font-family="Times,serif" font-size="14.00">9 #21</text>
<text text-anchor="middle" x="60.81" y="-986.89" font-family="Times,serif" font-size="14.00">fin: 0:6 , </text>
<text text-anchor="middle" x="60.81" y="-971.89" font-family="Times,serif" font-size="14.00"> path: 0:15 , </text>
<text text-anchor="middle" x="60.81" y="-956.89" font-family="Times,serif" font-size="14.00">15 6</text>
<text text-anchor="middle" x="60.81" y="-941.89" font-family="Times,serif" font-size="14.00">[15,]</text>
</g>
<!-- 7&#45;&gt;9 -->
<g id="edge10" class="edge">
<title>7&#45;&gt;9</title>
<path fill="none" stroke="black" stroke-width="2.08" d="M60.81,-1100.08C60.81,-1082.49 60.81,-1063 60.81,-1044.8"/>
<polygon fill="black" stroke="black" stroke-width="2.08" points="64.31,-1044.55 60.81,-1034.55 57.31,-1044.55 64.31,-1044.55"/>
<text text-anchor="middle" x="170.81" y="-1071.08" font-family="Times,serif" font-size="14.00">8761.0__&gt;__200.0__get__user__eureka</text>
<text text-anchor="middle" x="170.81" y="-1056.08" font-family="Times,serif" font-size="14.00">6 </text>
</g>
<!-- 10 -->
<g id="node12" class="node">
<title>10</title>
<ellipse fill="#ff3030" stroke="black" stroke-width="0.69" cx="433.81" cy="-975.59" rx="56.64" ry="58.88"/>
<text text-anchor="middle" x="433.81" y="-1001.89" font-family="Times,serif" font-size="14.00">10 #1</text>
<text text-anchor="middle" x="433.81" y="-986.89" font-family="Times,serif" font-size="14.00">fin: </text>
<text text-anchor="middle" x="433.81" y="-971.89" font-family="Times,serif" font-size="14.00"> path: 0:1 , </text>
<text text-anchor="middle" x="433.81" y="-956.89" font-family="Times,serif" font-size="14.00">1 0</text>
<text text-anchor="middle" x="433.81" y="-941.89" font-family="Times,serif" font-size="14.00">[1,]</text>
</g>
<!-- 8&#45;&gt;10 -->
<g id="edge11" class="edge">
<title>8&#45;&gt;10</title>
<path fill="none" stroke="black" stroke-width="0.69" d="M433.13,-1100.08C433.23,-1082.49 433.33,-1063 433.44,-1044.8"/>
<polygon fill="black" stroke="black" stroke-width="0.69" points="436.94,-1044.57 433.49,-1034.55 429.94,-1044.53 436.94,-1044.57"/>
<text text-anchor="middle" x="543.81" y="-1071.08" font-family="Times,serif" font-size="14.00">8761.0__&gt;__200.0__get__user__eureka</text>
<text text-anchor="middle" x="543.81" y="-1056.08" font-family="Times,serif" font-size="14.00">1 </text>
</g>
<!-- 9&#45;&gt;9 -->
<g id="edge12" class="edge">
<title>9&#45;&gt;9</title>
<path fill="none" stroke="black" stroke-width="3.09" d="M119.58,-991.77C131.28,-989.95 139.62,-984.55 139.62,-975.59 139.62,-969.43 135.68,-964.95 129.42,-962.16"/>
<polygon fill="black" stroke="black" stroke-width="3.09" points="130.16,-958.74 119.58,-959.41 128.27,-965.48 130.16,-958.74"/>
<text text-anchor="middle" x="249.62" y="-979.39" font-family="Times,serif" font-size="14.00">8761.0__&gt;__200.0__get__user__eureka</text>
<text text-anchor="middle" x="249.62" y="-964.39" font-family="Times,serif" font-size="14.00">15 </text>
</g>
<!-- 11 -->
<g id="node13" class="node">
<title>11</title>
<ellipse fill="#ff3030" stroke="black" stroke-width="0.69" cx="433.81" cy="-792.21" rx="56.64" ry="58.88"/>
<text text-anchor="middle" x="433.81" y="-818.51" font-family="Times,serif" font-size="14.00">11 #1</text>
<text text-anchor="middle" x="433.81" y="-803.51" font-family="Times,serif" font-size="14.00">fin: </text>
<text text-anchor="middle" x="433.81" y="-788.51" font-family="Times,serif" font-size="14.00"> path: 0:1 , </text>
<text text-anchor="middle" x="433.81" y="-773.51" font-family="Times,serif" font-size="14.00">1 0</text>
<text text-anchor="middle" x="433.81" y="-758.51" font-family="Times,serif" font-size="14.00">[1,]</text>
</g>
<!-- 10&#45;&gt;11 -->
<g id="edge13" class="edge">
<title>10&#45;&gt;11</title>
<path fill="none" stroke="black" stroke-width="0.69" d="M433.81,-916.7C433.81,-899.11 433.81,-879.62 433.81,-861.42"/>
<polygon fill="black" stroke="black" stroke-width="0.69" points="437.31,-861.17 433.81,-851.17 430.31,-861.17 437.31,-861.17"/>
<text text-anchor="middle" x="543.81" y="-887.7" font-family="Times,serif" font-size="14.00">8761.0__&gt;__200.0__get__user__eureka</text>
<text text-anchor="middle" x="543.81" y="-872.7" font-family="Times,serif" font-size="14.00">1 </text>
</g>
<!-- 12 -->
<g id="node14" class="node">
<title>12</title>
<ellipse fill="#ff3030" stroke="black" stroke-width="0.69" cx="433.81" cy="-608.83" rx="56.64" ry="58.88"/>
<text text-anchor="middle" x="433.81" y="-635.13" font-family="Times,serif" font-size="14.00">12 #1</text>
<text text-anchor="middle" x="433.81" y="-620.13" font-family="Times,serif" font-size="14.00">fin: </text>
<text text-anchor="middle" x="433.81" y="-605.13" font-family="Times,serif" font-size="14.00"> path: 0:1 , </text>
<text text-anchor="middle" x="433.81" y="-590.13" font-family="Times,serif" font-size="14.00">1 0</text>
<text text-anchor="middle" x="433.81" y="-575.13" font-family="Times,serif" font-size="14.00">[1,]</text>
</g>
<!-- 11&#45;&gt;12 -->
<g id="edge14" class="edge">
<title>11&#45;&gt;12</title>
<path fill="none" stroke="black" stroke-width="0.69" d="M433.81,-733.32C433.81,-715.73 433.81,-696.24 433.81,-678.04"/>
<polygon fill="black" stroke="black" stroke-width="0.69" points="437.31,-677.79 433.81,-667.79 430.31,-677.79 437.31,-677.79"/>
<text text-anchor="middle" x="543.81" y="-704.32" font-family="Times,serif" font-size="14.00">8761.0__&gt;__200.0__get__user__eureka</text>
<text text-anchor="middle" x="543.81" y="-689.32" font-family="Times,serif" font-size="14.00">1 </text>
</g>
<!-- 13 -->
<g id="node15" class="node">
<title>13</title>
<ellipse fill="#ff3030" stroke="black" stroke-width="0.69" cx="433.81" cy="-425.45" rx="56.64" ry="58.88"/>
<text text-anchor="middle" x="433.81" y="-451.75" font-family="Times,serif" font-size="14.00">13 #1</text>
<text text-anchor="middle" x="433.81" y="-436.75" font-family="Times,serif" font-size="14.00">fin: </text>
<text text-anchor="middle" x="433.81" y="-421.75" font-family="Times,serif" font-size="14.00"> path: 0:1 , </text>
<text text-anchor="middle" x="433.81" y="-406.75" font-family="Times,serif" font-size="14.00">1 0</text>
<text text-anchor="middle" x="433.81" y="-391.75" font-family="Times,serif" font-size="14.00">[1,]</text>
</g>
<!-- 12&#45;&gt;13 -->
<g id="edge15" class="edge">
<title>12&#45;&gt;13</title>
<path fill="none" stroke="black" stroke-width="0.69" d="M433.81,-549.94C433.81,-532.35 433.81,-512.86 433.81,-494.66"/>
<polygon fill="black" stroke="black" stroke-width="0.69" points="437.31,-494.41 433.81,-484.41 430.31,-494.41 437.31,-494.41"/>
<text text-anchor="middle" x="543.81" y="-520.94" font-family="Times,serif" font-size="14.00">8761.0__&gt;__200.0__get__user__eureka</text>
<text text-anchor="middle" x="543.81" y="-505.94" font-family="Times,serif" font-size="14.00">1 </text>
</g>
<!-- 14 -->
<g id="node16" class="node">
<title>14</title>
<ellipse fill="#ff3030" stroke="black" stroke-width="0.69" cx="433.81" cy="-242.07" rx="56.64" ry="58.88"/>
<text text-anchor="middle" x="433.81" y="-268.37" font-family="Times,serif" font-size="14.00">14 #1</text>
<text text-anchor="middle" x="433.81" y="-253.37" font-family="Times,serif" font-size="14.00">fin: </text>
<text text-anchor="middle" x="433.81" y="-238.37" font-family="Times,serif" font-size="14.00"> path: 0:1 , </text>
<text text-anchor="middle" x="433.81" y="-223.37" font-family="Times,serif" font-size="14.00">1 0</text>
<text text-anchor="middle" x="433.81" y="-208.37" font-family="Times,serif" font-size="14.00">[1,]</text>
</g>
<!-- 13&#45;&gt;14 -->
<g id="edge16" class="edge">
<title>13&#45;&gt;14</title>
<path fill="none" stroke="black" stroke-width="0.69" d="M433.81,-366.56C433.81,-348.97 433.81,-329.48 433.81,-311.28"/>
<polygon fill="black" stroke="black" stroke-width="0.69" points="437.31,-311.03 433.81,-301.03 430.31,-311.03 437.31,-311.03"/>
<text text-anchor="middle" x="543.81" y="-337.56" font-family="Times,serif" font-size="14.00">8761.0__&gt;__200.0__get__user__eureka</text>
<text text-anchor="middle" x="543.81" y="-322.56" font-family="Times,serif" font-size="14.00">1 </text>
</g>
<!-- 15 -->
<g id="node17" class="node">
<title>15</title>
<ellipse fill="#ff3030" stroke="black" stroke-width="0.69" cx="433.81" cy="-58.69" rx="48.17" ry="58.88"/>
<text text-anchor="middle" x="433.81" y="-84.99" font-family="Times,serif" font-size="14.00">15 #1</text>
<text text-anchor="middle" x="433.81" y="-69.99" font-family="Times,serif" font-size="14.00">fin: 0:1 , </text>
<text text-anchor="middle" x="433.81" y="-54.99" font-family="Times,serif" font-size="14.00"> path: </text>
<text text-anchor="middle" x="433.81" y="-39.99" font-family="Times,serif" font-size="14.00">0 1</text>
<text text-anchor="middle" x="433.81" y="-24.99" font-family="Times,serif" font-size="14.00">[]</text>
</g>
<!-- 14&#45;&gt;15 -->
<g id="edge17" class="edge">
<title>14&#45;&gt;15</title>
<path fill="none" stroke="black" stroke-width="0.69" d="M433.81,-183.18C433.81,-165.59 433.81,-146.1 433.81,-127.9"/>
<polygon fill="black" stroke="black" stroke-width="0.69" points="437.31,-127.65 433.81,-117.65 430.31,-127.65 437.31,-127.65"/>
<text text-anchor="middle" x="543.81" y="-154.18" font-family="Times,serif" font-size="14.00">8761.0__&gt;__200.0__get__user__eureka</text>
<text text-anchor="middle" x="543.81" y="-139.18" font-family="Times,serif" font-size="14.00">1 </text>
</g>
</g>
</svg>
