<?xml version="1.0" encoding="UTF-8" standalone="no"?>
<!DOCTYPE svg PUBLIC "-//W3C//DTD SVG 1.1//EN"
 "http://www.w3.org/Graphics/SVG/1.1/DTD/svg11.dtd">
<!-- Generated by graphviz version 2.50.0 (20211204.2007)
 -->
<!-- Title: DFA Pages: 1 -->
<svg width="624pt" height="485pt"
 viewBox="0.00 0.00 624.00 485.00" xmlns="http://www.w3.org/2000/svg" xmlns:xlink="http://www.w3.org/1999/xlink">
<g id="graph0" class="graph" transform="scale(1 1) rotate(0) translate(4 481)">
<title>DFA</title>
<polygon fill="white" stroke="transparent" points="-4,4 -4,-481 620,-481 620,4 -4,4"/>
<!-- 0 -->
<g id="node1" class="node">
<title>0</title>
<polygon fill="#ff3030" stroke="black" stroke-width="8.41" points="169,-404 8,-404 8,-243 169,-243 169,-404"/>
<text text-anchor="middle" x="88.5" y="-349.8" font-family="Times,serif" font-size="14.00">0 #4487</text>
<text text-anchor="middle" x="88.5" y="-334.8" font-family="Times,serif" font-size="14.00">fin: </text>
<text text-anchor="middle" x="88.5" y="-319.8" font-family="Times,serif" font-size="14.00"> path: 0:4487 , </text>
<text text-anchor="middle" x="88.5" y="-304.8" font-family="Times,serif" font-size="14.00">4487 0</text>
<text text-anchor="middle" x="88.5" y="-289.8" font-family="Times,serif" font-size="14.00">[4487,]</text>
</g>
<!-- 1 -->
<g id="node3" class="node">
<title>1</title>
<ellipse fill="#ff3030" stroke="black" stroke-width="10.71" cx="88.5" cy="-88.5" rx="88.5" ry="88.5"/>
<text text-anchor="middle" x="88.5" y="-114.8" font-family="Times,serif" font-size="14.00">1 #44825</text>
<text text-anchor="middle" x="88.5" y="-99.8" font-family="Times,serif" font-size="14.00">fin: 0:4487 , </text>
<text text-anchor="middle" x="88.5" y="-84.8" font-family="Times,serif" font-size="14.00"> path: 0:40338 , </text>
<text text-anchor="middle" x="88.5" y="-69.8" font-family="Times,serif" font-size="14.00">40338 4487</text>
<text text-anchor="middle" x="88.5" y="-54.8" font-family="Times,serif" font-size="14.00">[40338,]</text>
</g>
<!-- 0&#45;&gt;1 -->
<g id="edge2" class="edge">
<title>0&#45;&gt;1</title>
<path fill="none" stroke="black" stroke-width="8.41" d="M88.5,-242.97C88.5,-225.06 88.5,-205.85 88.5,-187.29"/>
<polygon fill="black" stroke="black" stroke-width="8.41" points="95.86,-187.06 88.5,-177.06 81.14,-187.06 95.86,-187.06"/>
<text text-anchor="middle" x="299" y="-213.8" font-family="Times,serif" font-size="14.00">8761.0__&gt;eureka&gt;peerreplication&gt;batch&gt;__200.0__post__registry__registry</text>
<text text-anchor="middle" x="299" y="-198.8" font-family="Times,serif" font-size="14.00">4487 </text>
</g>
<!-- I -->
<g id="node2" class="node">
<title>I</title>
<ellipse fill="none" stroke="black" cx="88.5" cy="-459" rx="27" ry="18"/>
<text text-anchor="middle" x="88.5" y="-455.3" font-family="Times,serif" font-size="14.00">I</text>
</g>
<!-- I&#45;&gt;0 -->
<g id="edge1" class="edge">
<title>I&#45;&gt;0</title>
<path fill="none" stroke="black" d="M88.5,-440.82C88.5,-433.48 88.5,-424.3 88.5,-414.35"/>
<polygon fill="black" stroke="black" points="92,-414.17 88.5,-404.17 85,-414.17 92,-414.17"/>
</g>
<!-- 1&#45;&gt;1 -->
<g id="edge3" class="edge">
<title>1&#45;&gt;1</title>
<path fill="none" stroke="black" stroke-width="10.71" d="M175,-108.58C186.99,-105.27 195,-98.58 195,-88.5 195,-81.41 191.04,-76 184.52,-72.26"/>
<polygon fill="black" stroke="black" stroke-width="10.71" points="187.78,-63.47 175,-68.42 180.77,-80.85 187.78,-63.47"/>
<text text-anchor="middle" x="405.5" y="-92.3" font-family="Times,serif" font-size="14.00">8761.0__&gt;eureka&gt;peerreplication&gt;batch&gt;__200.0__post__registry__registry</text>
<text text-anchor="middle" x="405.5" y="-77.3" font-family="Times,serif" font-size="14.00">40338 </text>
</g>
</g>
</svg>
