<?xml version="1.0" encoding="UTF-8" standalone="no"?>
<!DOCTYPE svg PUBLIC "-//W3C//DTD SVG 1.1//EN"
 "http://www.w3.org/Graphics/SVG/1.1/DTD/svg11.dtd">
<!-- Generated by graphviz version 2.50.0 (20211204.2007)
 -->
<!-- Title: DFA Pages: 1 -->
<svg width="564pt" height="735pt"
 viewBox="0.00 0.00 563.50 735.14" xmlns="http://www.w3.org/2000/svg" xmlns:xlink="http://www.w3.org/1999/xlink">
<g id="graph0" class="graph" transform="scale(1 1) rotate(0) translate(4 731.14)">
<title>DFA</title>
<polygon fill="white" stroke="transparent" points="-4,4 -4,-731.14 559.5,-731.14 559.5,4 -4,4"/>
<!-- 0 -->
<g id="node1" class="node">
<title>0</title>
<polygon fill="#ff3030" stroke="black" stroke-width="3.22" points="127,-654.14 0,-654.14 0,-550.14 127,-550.14 127,-654.14"/>
<text text-anchor="middle" x="63.5" y="-628.44" font-family="Times,serif" font-size="14.00">0 #24</text>
<text text-anchor="middle" x="63.5" y="-613.44" font-family="Times,serif" font-size="14.00">fin: </text>
<text text-anchor="middle" x="63.5" y="-598.44" font-family="Times,serif" font-size="14.00"> path: 0:24 , </text>
<text text-anchor="middle" x="63.5" y="-583.44" font-family="Times,serif" font-size="14.00">24 0</text>
<text text-anchor="middle" x="63.5" y="-568.44" font-family="Times,serif" font-size="14.00">[12,4,1,1,1,1,1,2,1,]</text>
</g>
<!-- 1 -->
<g id="node3" class="node">
<title>1</title>
<ellipse fill="#ff3030" stroke="black" stroke-width="2.56" cx="63.5" cy="-425.45" rx="60.62" ry="58.88"/>
<text text-anchor="middle" x="63.5" y="-451.75" font-family="Times,serif" font-size="14.00">1 #12</text>
<text text-anchor="middle" x="63.5" y="-436.75" font-family="Times,serif" font-size="14.00">fin: 0:1 , </text>
<text text-anchor="middle" x="63.5" y="-421.75" font-family="Times,serif" font-size="14.00"> path: 0:11 , </text>
<text text-anchor="middle" x="63.5" y="-406.75" font-family="Times,serif" font-size="14.00">11 1</text>
<text text-anchor="middle" x="63.5" y="-391.75" font-family="Times,serif" font-size="14.00">[9,2,]</text>
</g>
<!-- 0&#45;&gt;1 -->
<g id="edge2" class="edge">
<title>0&#45;&gt;1</title>
<path fill="none" stroke="black" stroke-width="3.22" d="M63.5,-549.67C63.5,-532.35 63.5,-512.75 63.5,-494.36"/>
<polygon fill="black" stroke="black" stroke-width="3.22" points="67,-494.28 63.5,-484.28 60,-494.28 67,-494.28"/>
<text text-anchor="middle" x="203.5" y="-520.94" font-family="Times,serif" font-size="14.00">in__8080.0__&gt;__200.0__get__user__admin&#45;server</text>
<text text-anchor="middle" x="203.5" y="-505.94" font-family="Times,serif" font-size="14.00">12 </text>
</g>
<!-- I -->
<g id="node2" class="node">
<title>I</title>
<ellipse fill="none" stroke="black" cx="63.5" cy="-709.14" rx="27" ry="18"/>
<text text-anchor="middle" x="63.5" y="-705.44" font-family="Times,serif" font-size="14.00">I</text>
</g>
<!-- I&#45;&gt;0 -->
<g id="edge1" class="edge">
<title>I&#45;&gt;0</title>
<path fill="none" stroke="black" d="M63.5,-690.8C63.5,-683.36 63.5,-674.19 63.5,-664.6"/>
<polygon fill="black" stroke="black" points="67,-664.51 63.5,-654.51 60,-664.51 67,-664.51"/>
</g>
<!-- 10 -->
<g id="node4" class="node">
<title>10</title>
<ellipse fill="#ff3030" stroke="black" stroke-width="2.3" cx="63.5" cy="-242.07" rx="56.64" ry="58.88"/>
<text text-anchor="middle" x="63.5" y="-268.37" font-family="Times,serif" font-size="14.00">10 #9</text>
<text text-anchor="middle" x="63.5" y="-253.37" font-family="Times,serif" font-size="14.00">fin: 0:1 , </text>
<text text-anchor="middle" x="63.5" y="-238.37" font-family="Times,serif" font-size="14.00"> path: 0:8 , </text>
<text text-anchor="middle" x="63.5" y="-223.37" font-family="Times,serif" font-size="14.00">8 1</text>
<text text-anchor="middle" x="63.5" y="-208.37" font-family="Times,serif" font-size="14.00">[8,]</text>
</g>
<!-- 1&#45;&gt;10 -->
<g id="edge3" class="edge">
<title>1&#45;&gt;10</title>
<path fill="none" stroke="black" stroke-width="2.56" d="M63.5,-366.56C63.5,-348.97 63.5,-329.48 63.5,-311.28"/>
<polygon fill="black" stroke="black" stroke-width="2.56" points="67,-311.03 63.5,-301.03 60,-311.03 67,-311.03"/>
<text text-anchor="middle" x="236" y="-337.56" font-family="Times,serif" font-size="14.00">in__8080.0__&gt;applications__200.0__get__user__admin&#45;server</text>
<text text-anchor="middle" x="236" y="-322.56" font-family="Times,serif" font-size="14.00">9 </text>
</g>
<!-- 23 -->
<g id="node5" class="node">
<title>23</title>
<ellipse fill="#ff3030" stroke="black" stroke-width="2.2" cx="63.5" cy="-58.69" rx="56.64" ry="58.88"/>
<text text-anchor="middle" x="63.5" y="-84.99" font-family="Times,serif" font-size="14.00">23 #8</text>
<text text-anchor="middle" x="63.5" y="-69.99" font-family="Times,serif" font-size="14.00">fin: 0:1 , </text>
<text text-anchor="middle" x="63.5" y="-54.99" font-family="Times,serif" font-size="14.00"> path: 0:7 , </text>
<text text-anchor="middle" x="63.5" y="-39.99" font-family="Times,serif" font-size="14.00">7 1</text>
<text text-anchor="middle" x="63.5" y="-24.99" font-family="Times,serif" font-size="14.00">[7,]</text>
</g>
<!-- 10&#45;&gt;23 -->
<g id="edge4" class="edge">
<title>10&#45;&gt;23</title>
<path fill="none" stroke="black" stroke-width="2.3" d="M63.5,-183.18C63.5,-165.59 63.5,-146.1 63.5,-127.9"/>
<polygon fill="black" stroke="black" stroke-width="2.3" points="67,-127.65 63.5,-117.65 60,-127.65 67,-127.65"/>
<text text-anchor="middle" x="309.5" y="-154.18" font-family="Times,serif" font-size="14.00">in__8080.0__&gt;assets&gt;js&gt;chunk&#45;common.530a46a5.js__304.0__get__user__admin&#45;server</text>
<text text-anchor="middle" x="309.5" y="-139.18" font-family="Times,serif" font-size="14.00">8 </text>
</g>
</g>
</svg>
