<?xml version="1.0" encoding="UTF-8" standalone="no"?>
<!DOCTYPE svg PUBLIC "-//W3C//DTD SVG 1.1//EN"
 "http://www.w3.org/Graphics/SVG/1.1/DTD/svg11.dtd">
<!-- Generated by graphviz version 2.50.0 (20211204.2007)
 -->
<!-- Title: DFA Pages: 1 -->
<svg width="535pt" height="828pt"
 viewBox="0.00 0.00 535.00 827.76" xmlns="http://www.w3.org/2000/svg" xmlns:xlink="http://www.w3.org/1999/xlink">
<g id="graph0" class="graph" transform="scale(1 1) rotate(0) translate(4 823.76)">
<title>DFA</title>
<polygon fill="white" stroke="transparent" points="-4,4 -4,-823.76 531,-823.76 531,4 -4,4"/>
<!-- 0 -->
<g id="node1" class="node">
<title>0</title>
<polygon fill="#ff3030" stroke="black" stroke-width="6.81" points="157,-746.76 9,-746.76 9,-598.76 157,-598.76 157,-746.76"/>
<text text-anchor="middle" x="83" y="-699.06" font-family="Times,serif" font-size="14.00">0 #906</text>
<text text-anchor="middle" x="83" y="-684.06" font-family="Times,serif" font-size="14.00">fin: </text>
<text text-anchor="middle" x="83" y="-669.06" font-family="Times,serif" font-size="14.00"> path: 0:906 , </text>
<text text-anchor="middle" x="83" y="-654.06" font-family="Times,serif" font-size="14.00">906 0</text>
<text text-anchor="middle" x="83" y="-639.06" font-family="Times,serif" font-size="14.00">[904,2,]</text>
</g>
<!-- 1 -->
<g id="node3" class="node">
<title>1</title>
<ellipse fill="#ff3030" stroke="black" stroke-width="9.1" cx="83" cy="-449.76" rx="83" ry="83"/>
<text text-anchor="middle" x="83" y="-476.06" font-family="Times,serif" font-size="14.00">1 #8950</text>
<text text-anchor="middle" x="83" y="-461.06" font-family="Times,serif" font-size="14.00">fin: 0:895 , </text>
<text text-anchor="middle" x="83" y="-446.06" font-family="Times,serif" font-size="14.00"> path: 0:8055 , </text>
<text text-anchor="middle" x="83" y="-431.06" font-family="Times,serif" font-size="14.00">8055 895</text>
<text text-anchor="middle" x="83" y="-416.06" font-family="Times,serif" font-size="14.00">[8046,9,]</text>
</g>
<!-- 0&#45;&gt;1 -->
<g id="edge2" class="edge">
<title>0&#45;&gt;1</title>
<path fill="none" stroke="black" stroke-width="6.81" d="M83,-598.48C83,-580.77 83,-561.62 83,-543.17"/>
<polygon fill="black" stroke="black" stroke-width="6.81" points="88.96,-543 83,-533 77.04,-543 88.96,-543"/>
<text text-anchor="middle" x="254.5" y="-569.56" font-family="Times,serif" font-size="14.00">in__3000.0__&gt;api&gt;health__200.0__get__user__grafana&#45;server</text>
<text text-anchor="middle" x="254.5" y="-554.56" font-family="Times,serif" font-size="14.00">904 </text>
</g>
<!-- I -->
<g id="node2" class="node">
<title>I</title>
<ellipse fill="none" stroke="black" cx="83" cy="-801.76" rx="27" ry="18"/>
<text text-anchor="middle" x="83" y="-798.06" font-family="Times,serif" font-size="14.00">I</text>
</g>
<!-- I&#45;&gt;0 -->
<g id="edge1" class="edge">
<title>I&#45;&gt;0</title>
<path fill="none" stroke="black" d="M83,-783.63C83,-776.22 83,-766.95 83,-756.96"/>
<polygon fill="black" stroke="black" points="86.5,-756.77 83,-746.77 79.5,-756.77 86.5,-756.77"/>
</g>
<!-- 1&#45;&gt;1 -->
<g id="edge3" class="edge">
<title>1&#45;&gt;1</title>
<path fill="none" stroke="black" stroke-width="9.1" d="M163.83,-469.49C175.86,-466.42 184,-459.84 184,-449.76 184,-442.67 179.98,-437.31 173.41,-433.69"/>
<polygon fill="black" stroke="black" stroke-width="9.1" points="176.01,-426.16 163.83,-430.03 170.32,-441.04 176.01,-426.16"/>
<text text-anchor="middle" x="355.5" y="-453.56" font-family="Times,serif" font-size="14.00">in__3000.0__&gt;api&gt;health__200.0__get__user__grafana&#45;server</text>
<text text-anchor="middle" x="355.5" y="-438.56" font-family="Times,serif" font-size="14.00">8046 </text>
</g>
<!-- 3 -->
<g id="node4" class="node">
<title>3</title>
<ellipse fill="#ff3030" stroke="black" stroke-width="2.3" cx="83" cy="-242.07" rx="56.64" ry="58.88"/>
<text text-anchor="middle" x="83" y="-268.37" font-family="Times,serif" font-size="14.00">3 #9</text>
<text text-anchor="middle" x="83" y="-253.37" font-family="Times,serif" font-size="14.00">fin: 0:1 , </text>
<text text-anchor="middle" x="83" y="-238.37" font-family="Times,serif" font-size="14.00"> path: 0:8 , </text>
<text text-anchor="middle" x="83" y="-223.37" font-family="Times,serif" font-size="14.00">8 1</text>
<text text-anchor="middle" x="83" y="-208.37" font-family="Times,serif" font-size="14.00">[0,8,]</text>
</g>
<!-- 1&#45;&gt;3 -->
<g id="edge4" class="edge">
<title>1&#45;&gt;3</title>
<path fill="none" stroke="black" stroke-width="9.1" d="M83,-366.58C83,-348.15 83,-328.8 83,-311.03"/>
<polygon fill="black" stroke="black" stroke-width="9.1" points="90.96,-310.76 83,-300.76 75.04,-310.76 90.96,-310.76"/>
<text text-anchor="middle" x="292" y="-337.56" font-family="Times,serif" font-size="14.00">in__3000.0__&gt;api&gt;health__200.0__get__kube&#45;proxy&#45;pbcvl__grafana&#45;server</text>
<text text-anchor="middle" x="292" y="-322.56" font-family="Times,serif" font-size="14.00">9 </text>
</g>
<!-- 6 -->
<g id="node5" class="node">
<title>6</title>
<ellipse fill="#ff3030" stroke="black" stroke-width="2.2" cx="83" cy="-58.69" rx="56.64" ry="58.88"/>
<text text-anchor="middle" x="83" y="-84.99" font-family="Times,serif" font-size="14.00">6 #8</text>
<text text-anchor="middle" x="83" y="-69.99" font-family="Times,serif" font-size="14.00">fin: 0:1 , </text>
<text text-anchor="middle" x="83" y="-54.99" font-family="Times,serif" font-size="14.00"> path: 0:7 , </text>
<text text-anchor="middle" x="83" y="-39.99" font-family="Times,serif" font-size="14.00">7 1</text>
<text text-anchor="middle" x="83" y="-24.99" font-family="Times,serif" font-size="14.00">[7,]</text>
</g>
<!-- 3&#45;&gt;6 -->
<g id="edge5" class="edge">
<title>3&#45;&gt;6</title>
<path fill="none" stroke="black" stroke-width="2.3" d="M83,-183.18C83,-165.59 83,-146.1 83,-127.9"/>
<polygon fill="black" stroke="black" stroke-width="2.3" points="86.5,-127.65 83,-117.65 79.5,-127.65 86.5,-127.65"/>
<text text-anchor="middle" x="292" y="-154.18" font-family="Times,serif" font-size="14.00">in__3000.0__&gt;api&gt;health__200.0__get__kube&#45;proxy&#45;pbcvl__grafana&#45;server</text>
<text text-anchor="middle" x="292" y="-139.18" font-family="Times,serif" font-size="14.00">8 </text>
</g>
</g>
</svg>
